REM DISCID 610A8408
REM COMMENT "ExactAudioCopy v0.99pb4"
PERFORMER "▀▄ъ┼к╧кыкл,Є─ягклкккъ,Annabel"
TITLE "№г▀╠с┤╥│~Lip-Aura~№│▀╠╩░═╪єв"
FILE "▀▄ъ┼к╧кыкл,Є─ягклкккъ,Annabel - №г▀╠с┤╥│~Lip-Aura~№│▀╠╩░═╪єв.wav" WAVE
  TRACK 01 AUDIO
    TITLE "Track01"
    PERFORMER "▀▄ъ┼к╧кыкл,Є─ягклкккъ,Annabel"
    INDEX 01 00:00:00
  TRACK 02 AUDIO
    TITLE "Track02"
    PERFORMER "▀▄ъ┼к╧кыкл,Є─ягклкккъ,Annabel"
    INDEX 00 05:06:50
    INDEX 01 05:09:68
  TRACK 03 AUDIO
    TITLE "Track03"
    PERFORMER "▀▄ъ┼к╧кыкл,Є─ягклкккъ,Annabel"
    INDEX 00 09:07:25
    INDEX 01 09:11:06
  TRACK 04 AUDIO
    TITLE "Track04"
    PERFORMER "▀▄ъ┼к╧кыкл,Є─ягклкккъ,Annabel"
    INDEX 00 15:50:38
    INDEX 01 15:53:57
  TRACK 05 AUDIO
    TITLE "Track05"
    PERFORMER "▀▄ъ┼к╧кыкл,Є─ягклкккъ,Annabel"
    INDEX 00 21:16:27
    INDEX 01 21:19:09
  TRACK 06 AUDIO
    TITLE "Track06"
    PERFORMER "▀▄ъ┼к╧кыкл,Є─ягклкккъ,Annabel"
    INDEX 00 28:15:49
    INDEX 01 28:18:19
  TRACK 07 AUDIO
    TITLE "Track07"
    PERFORMER "▀▄ъ┼к╧кыкл,Є─ягклкккъ,Annabel"
    INDEX 00 32:40:15
    INDEX 01 32:44:59
  TRACK 08 AUDIO
    TITLE "Track08"
    PERFORMER "▀▄ъ┼к╧кыкл,Є─ягклкккъ,Annabel"
    INDEX 00 39:02:28
    INDEX 01 39:05:09
